<?xml version="1.0" encoding="UTF-8"?>
<svg id="Layer_1" xmlns="http://www.w3.org/2000/svg" viewBox="0 0 22 22">
    <defs>
        <style>.cls-1{fill:#00362e;fill-rule:evenodd;stroke-width:0px;}</style>
    </defs>
    <g id="g11589">
        <g id="g11569">
            <path id="path11545" class="cls-1"
                  d="M4.11,5.55c-.42.25-.77.6-1.02,1.04-.25.44-.38.94-.37,1.41l.03,4.38c.01.98.59,2.07,1.49,2.58.23.14.66.36,1.23.39.5.02.88-.12,1.21-.24.38-.14.53-.26,1.21-.65.26-.15.65-.37,1.15-.64-.02-2.38-.04-4.75-.05-7.13,0,0-.09-1.77-.02-2.36.06-.48.24-.93.36-1.4l-5.2,2.62Z"/>
            <path id="path11545-2" class="cls-1"
                  d="M19.28,7.05c-.02-.48-.16-.96-.43-1.39-.27-.43-.65-.78-1.07-.99l-3.88-2.05c-.87-.45-2.1-.45-2.98.1-.23.14-.63.41-.92.9-.26.43-.31.84-.36,1.18-.05.4-.02.59,0,1.37.01.3.02.75.02,1.31,2.1,1.11,4.21,2.21,6.31,3.32,0,0,1.61.76,2.09,1.1.39.28.71.65,1.06.98l.15-5.82Z"/>
            <path id="path11545-3" class="cls-1"
                  d="M10.27,19.35c.42.23.91.36,1.42.35.51,0,1-.15,1.41-.4l3.77-2.25c.83-.51,1.48-1.56,1.47-2.59,0-.27-.02-.75-.29-1.26-.24-.44-.55-.7-.82-.92-.32-.25-.5-.33-1.18-.71-.26-.15-.65-.37-1.13-.67-2.04,1.22-4.08,2.44-6.12,3.66,0,0-1.48.98-2.02,1.22-.44.19-.93.26-1.39.4l4.89,3.16Z"/>
        </g>
    </g>
</svg>